<svg xmlns="http://www.w3.org/2000/svg" viewBox="0 0 81.529 15">
  <defs>
    <style>
      .cls-1 {
        fill: #e64400;
      }
    </style>
  </defs>
  <g id="Group_1" data-name="Group 1" transform="translate(0 0.1)">
    <g id="Group_182" data-name="Group 182" transform="translate(20.638 -0.1)">
      <path id="Path_95" data-name="Path 95" class="cls-1" d="M153.1.3h1.443V.947h-.809v1.12h.58v.688h-.58V3.929h.809v.647H153.1Z" transform="translate(-153.087 -0.246)"/>
      <path id="Path_96" data-name="Path 96" class="cls-1" d="M166.3.3h.634V3.983h.836v.58H166.3Z" transform="translate(-164.506 -0.246)"/>
      <path id="Path_97" data-name="Path 97" class="cls-1" d="M179.6.3h1.443V.947h-.809v1.12h.58v.688h-.58V3.929h.809v.647H179.6Z" transform="translate(-176.012 -0.246)"/>
      <path id="Path_98" data-name="Path 98" class="cls-1" d="M194.386,2.76v.58a1,1,0,0,1-.108.459.708.708,0,0,1-.256.31.745.745,0,0,1-.486.148.72.72,0,0,1-.486-.148.754.754,0,0,1-.243-.31,1.206,1.206,0,0,1-.108-.459V.831a1.043,1.043,0,0,1,.108-.459.93.93,0,0,1,.243-.324.864.864,0,0,1,.486-.148.745.745,0,0,1,.486.148.743.743,0,0,1,.256.324,1.208,1.208,0,0,1,.108.459v.58h-.594V.831a.348.348,0,0,0-.094-.27.217.217,0,0,0-.148-.04.2.2,0,0,0-.189.162.5.5,0,0,0-.027.162V3.353a.406.406,0,0,0,.094.27.165.165,0,0,0,.121.04.2.2,0,0,0,.216-.162.5.5,0,0,0,.027-.162V2.76Z" transform="translate(-187.345 0.1)"/>
      <path id="Path_99" data-name="Path 99" class="cls-1" d="M206.6.947V.3h1.821V.947h-.594V4.563h-.634V.947Z" transform="translate(-199.37 -0.246)"/>
      <path id="Path_100" data-name="Path 100" class="cls-1" d="M223.233,4.563l-.324-1.794h-.175V4.563H222.1V.3h.634c.755,0,1.079.418,1.079,1.228a1.173,1.173,0,0,1-.351.971l.4,2.064Zm-.5-2.374a.453.453,0,0,0,.3-.094.681.681,0,0,0,.175-.54.681.681,0,0,0-.175-.54.434.434,0,0,0-.3-.081Z" transform="translate(-212.779 -0.246)"/>
      <path id="Path_101" data-name="Path 101" class="cls-1" d="M239.286,3.34a1,1,0,0,1-.108.459.709.709,0,0,1-.256.31.745.745,0,0,1-.486.148.72.72,0,0,1-.486-.148.754.754,0,0,1-.243-.31,1.208,1.208,0,0,1-.108-.459V.831a1.044,1.044,0,0,1,.108-.459.931.931,0,0,1,.243-.324.864.864,0,0,1,.486-.148.745.745,0,0,1,.486.148.743.743,0,0,1,.256.324,1.208,1.208,0,0,1,.108.459ZM238.652.831a.4.4,0,0,0-.081-.27.205.205,0,0,0-.324.121.5.5,0,0,0-.027.162V3.353a.4.4,0,0,0,.081.27.165.165,0,0,0,.121.04.189.189,0,0,0,.189-.162.5.5,0,0,0,.027-.162V.831Z" transform="translate(-226.188 0.1)"/>
      <path id="Path_102" data-name="Path 102" class="cls-1" d="M254.074,2.35l-.054-.2h-.04V4.563h-.58V.3h.567l.607,2.212.054.2h.04V.3h.58V4.563h-.553Z" transform="translate(-239.857 -0.246)"/>
      <path id="Path_103" data-name="Path 103" class="cls-1" d="M270.8.3h.634V4.563H270.8Z" transform="translate(-254.91 -0.246)"/>
      <path id="Path_104" data-name="Path 104" class="cls-1" d="M280.486,2.76v.58a1,1,0,0,1-.108.459.708.708,0,0,1-.256.31.745.745,0,0,1-.486.148.72.72,0,0,1-.486-.148.753.753,0,0,1-.243-.31,1.206,1.206,0,0,1-.108-.459V.831a1.043,1.043,0,0,1,.108-.459.93.93,0,0,1,.243-.324.864.864,0,0,1,.486-.148.745.745,0,0,1,.486.148.743.743,0,0,1,.256.324,1.206,1.206,0,0,1,.108.459v.58h-.594V.831a.348.348,0,0,0-.094-.27.217.217,0,0,0-.148-.04.2.2,0,0,0-.189.162.5.5,0,0,0-.027.162V3.353a.406.406,0,0,0,.094.27.165.165,0,0,0,.121.04.2.2,0,0,0,.216-.162.5.5,0,0,0,.027-.162V2.76Z" transform="translate(-261.831 0.1)"/>
      <path id="Path_105" data-name="Path 105" class="cls-1" d="M154.443,40.434h-.809v1.12h.58V42.2h-.58v1.848H153V39.8h1.443Z" transform="translate(-153 -34.418)"/>
      <path id="Path_106" data-name="Path 106" class="cls-1" d="M167.433,44.049l-.337-1.794h-.162v1.794H166.3V39.8h.634c.755,0,1.079.418,1.079,1.228a1.173,1.173,0,0,1-.351.971l.4,2.064h-.634Zm-.5-2.374a.453.453,0,0,0,.3-.094.918.918,0,0,0,0-1.079.434.434,0,0,0-.3-.081Z" transform="translate(-164.506 -34.418)"/>
      <path id="Path_107" data-name="Path 107" class="cls-1" d="M183.486,42.84a1,1,0,0,1-.108.459.708.708,0,0,1-.256.31.745.745,0,0,1-.486.148.72.72,0,0,1-.486-.148.754.754,0,0,1-.243-.31,1.207,1.207,0,0,1-.108-.459V40.331a1.043,1.043,0,0,1,.108-.459.93.93,0,0,1,.243-.324.864.864,0,0,1,.486-.148.774.774,0,0,1,.742.472,1.207,1.207,0,0,1,.108.459Zm-.634-2.509a.4.4,0,0,0-.081-.27.205.205,0,0,0-.324.121.5.5,0,0,0-.027.162v2.509a.4.4,0,0,0,.081.27.165.165,0,0,0,.121.04.189.189,0,0,0,.189-.162.5.5,0,0,0,.027-.162V40.331Z" transform="translate(-177.915 -34.072)"/>
      <path id="Path_108" data-name="Path 108" class="cls-1" d="M198.361,41.837l-.054-.2h-.027v2.415h-.58V39.8h.567l.607,2.212.054.2h.04V39.8h.58v4.263h-.567Z" transform="translate(-191.67 -34.418)"/>
      <path id="Path_109" data-name="Path 109" class="cls-1" d="M213.3,40.347V39.7h1.821v.647h-.594v3.615h-.634V40.347Z" transform="translate(-205.166 -34.331)"/>
      <path id="Path_110" data-name="Path 110" class="cls-1" d="M228.9,39.8h.634v4.263H228.9Z" transform="translate(-218.662 -34.418)"/>
      <path id="Path_111" data-name="Path 111" class="cls-1" d="M237.2,39.8h1.443v.647h-.809v1.12h.58v.688h-.58v1.174h.809v.647H237.2Z" transform="translate(-225.842 -34.418)"/>
      <path id="Path_112" data-name="Path 112" class="cls-1" d="M251.747,44.049l-.337-1.794h-.175v1.794H250.6V39.8h.634c.755,0,1.079.418,1.079,1.228a1.173,1.173,0,0,1-.351.971l.4,2.064h-.62Zm-.5-2.374a.453.453,0,0,0,.3-.094.918.918,0,0,0,0-1.079.434.434,0,0,0-.3-.081Z" transform="translate(-237.434 -34.418)"/>
      <path id="Path_113" data-name="Path 113" class="cls-1" d="M154.543,79.847h-.809v1.12h.58V81.6h-.58v1.848H153.1V79.2h1.443Z" transform="translate(-153.087 -68.503)"/>
      <path id="Path_114" data-name="Path 114" class="cls-1" d="M167.686,82.24a1,1,0,0,1-.108.459.708.708,0,0,1-.256.31.745.745,0,0,1-.486.148.72.72,0,0,1-.486-.148.754.754,0,0,1-.243-.31A1.207,1.207,0,0,1,166,82.24V79.731a1.044,1.044,0,0,1,.108-.459.931.931,0,0,1,.243-.324.864.864,0,0,1,.486-.148.774.774,0,0,1,.742.472,1.207,1.207,0,0,1,.108.459Zm-.634-2.509a.4.4,0,0,0-.081-.27.205.205,0,0,0-.324.121.5.5,0,0,0-.027.162v2.509a.4.4,0,0,0,.081.27.165.165,0,0,0,.121.04.189.189,0,0,0,.189-.162.5.5,0,0,0,.027-.162V79.731Z" transform="translate(-164.246 -68.157)"/>
      <path id="Path_115" data-name="Path 115" class="cls-1" d="M183.486,79.2v3.386a1,1,0,0,1-.108.459.708.708,0,0,1-.256.31.745.745,0,0,1-.486.148.72.72,0,0,1-.486-.148.754.754,0,0,1-.243-.31,1.207,1.207,0,0,1-.108-.459V79.2h.634v3.386a.4.4,0,0,0,.081.27.165.165,0,0,0,.121.04.189.189,0,0,0,.189-.162.5.5,0,0,0,.027-.162V79.2Z" transform="translate(-177.915 -68.503)"/>
      <path id="Path_116" data-name="Path 116" class="cls-1" d="M198.474,81.237l-.054-.2h-.04v2.415h-.58V79.2h.567l.607,2.212.054.2h.04V79.2h.58v4.263h-.567Z" transform="translate(-191.757 -68.503)"/>
      <path id="Path_117" data-name="Path 117" class="cls-1" d="M215.2,83.463V79.2h.5c.58,0,.9.121,1.066.445a7.622,7.622,0,0,1,0,3.372c-.175.324-.486.445-1.066.445Zm.634-.634c.216,0,.337-.027.4-.229a1.679,1.679,0,0,0,.054-.459V80.495a1.845,1.845,0,0,0-.054-.459c-.067-.2-.189-.229-.4-.229Z" transform="translate(-206.81 -68.503)"/>
      <path id="Path_118" data-name="Path 118" class="cls-1" d="M229.9,83.463l.647-4.263h.769l.647,4.263h-.607l-.121-.863h-.607l-.121.863Zm1.066-2.873-.014-.108h-.04l-.014.108-.175,1.349h.432Z" transform="translate(-219.527 -68.503)"/>
      <path id="Path_119" data-name="Path 119" class="cls-1" d="M244.6,79.847V79.2h1.821v.647h-.594v3.615h-.634V79.847Z" transform="translate(-232.244 -68.503)"/>
      <path id="Path_120" data-name="Path 120" class="cls-1" d="M260.7,79.2h.634v4.263H260.7Z" transform="translate(-246.172 -68.503)"/>
      <path id="Path_121" data-name="Path 121" class="cls-1" d="M270.386,82.24a1,1,0,0,1-.108.459.708.708,0,0,1-.256.31.745.745,0,0,1-.486.148.72.72,0,0,1-.486-.148.754.754,0,0,1-.243-.31,1.208,1.208,0,0,1-.108-.459V79.731a1.044,1.044,0,0,1,.108-.459.931.931,0,0,1,.243-.324.864.864,0,0,1,.486-.148.773.773,0,0,1,.742.472,1.208,1.208,0,0,1,.108.459Zm-.621-2.509a.4.4,0,0,0-.081-.27.205.205,0,0,0-.324.121.5.5,0,0,0-.027.162v2.509a.4.4,0,0,0,.081.27.165.165,0,0,0,.121.04.189.189,0,0,0,.189-.162.5.5,0,0,0,.027-.162V79.731Z" transform="translate(-253.093 -68.157)"/>
      <path id="Path_122" data-name="Path 122" class="cls-1" d="M285.174,81.237l-.054-.2h-.04v2.415h-.58V79.2h.567l.607,2.212.054.2h.041V79.2h.58v4.263h-.567Z" transform="translate(-266.762 -68.503)"/>
    </g>
    <g id="Group_183" data-name="Group 183" transform="translate(0 -0.033)">
      <path id="Path_123" data-name="Path 123" class="cls-1" d="M0,.4V15.279H19.586V11.029H6.38V9.964H19.586V5.715H6.38V4.649H19.586V.4Z" transform="translate(0 -0.4)"/>
      <path id="Path_124" data-name="Path 124" class="cls-1" d="M306.2.4V15.279h6.38V9.964h13.192V5.715H312.58V4.649h13.192V.4Z" transform="translate(-264.896 -0.4)"/>
      <path id="Path_125" data-name="Path 125" class="cls-1" d="M459.2.4V15.279h6.38V9.964h13.206V5.715H465.58V4.649h13.206V.4Z" transform="translate(-397.258 -0.4)"/>
    </g>
  </g>
</svg>
