<svg xmlns="http://www.w3.org/2000/svg" viewBox="-5299 493 412.8 49.8">
  <defs>
    <style>
      .cls-1 {
        fill: #c9501d;
      }

      .cls-2 {
        fill: none;
      }
    </style>
  </defs>
  <g id="logo_orange" data-name="logo orange" transform="translate(-5299 493)">
    <g id="Group_137" data-name="Group 137">
      <g id="Group_134" data-name="Group 134">
        <path id="Path_22" data-name="Path 22" class="cls-1" d="M306.1,15.9h7.7v2.4h-5.1v5.4h4.4v2.4h-4.4v7.7h-2.6Z"/>
        <path id="Path_23" data-name="Path 23" class="cls-1" d="M315.5,20.1a4.3,4.3,0,1,1,8.6,0v9.5a4.3,4.3,0,1,1-8.6,0Zm2.5,9.5a1.7,1.7,0,1,0,3.4,0V20.1a1.7,1.7,0,1,0-3.4,0Z"/>
        <path id="Path_24" data-name="Path 24" class="cls-1" d="M336.2,29.8A4.225,4.225,0,0,1,332,34a4.162,4.162,0,0,1-4.2-4.2V15.9h2.6V29.6c0,1.3.7,1.9,1.6,1.9s1.6-.6,1.6-1.9V15.9h2.6Z"/>
        <path id="Path_25" data-name="Path 25" class="cls-1" d="M340,15.9h2.5l3.9,10.8h.1V15.9h2.6V33.8h-2.4L342.8,23h-.1V33.8H340Z"/>
        <path id="Path_26" data-name="Path 26" class="cls-1" d="M352.8,15.9h3.8c2.9,0,4.5,1.7,4.5,4.6v8.4c0,3.3-1.7,4.9-4.7,4.9h-3.6V15.9Zm2.6,15.5h1.2c1.4,0,2-.7,2-2.2V20.6c0-1.4-.5-2.2-2-2.2h-1.2Z"/>
        <path id="Path_27" data-name="Path 27" class="cls-1" d="M367.6,15.9h2.1l4,17.9h-2.6l-.8-3.9h-3.5l-.8,3.9h-2.6Zm1.1,5.2h0l-1.3,6.5H370Z"/>
        <path id="Path_28" data-name="Path 28" class="cls-1" d="M376.8,18.3h-3V15.9h8.5v2.4h-3V33.8h-2.6V18.3Z"/>
        <path id="Path_29" data-name="Path 29" class="cls-1" d="M385.1,15.9h2.6V33.8h-2.6Z"/>
        <path id="Path_30" data-name="Path 30" class="cls-1" d="M391.5,20.1a4.3,4.3,0,1,1,8.6,0v9.5a4.3,4.3,0,1,1-8.6,0Zm2.6,9.5a1.7,1.7,0,1,0,3.4,0V20.1a1.7,1.7,0,1,0-3.4,0Z"/>
        <path id="Path_31" data-name="Path 31" class="cls-1" d="M403.8,15.9h2.5l3.9,10.8h0V15.9h2.6V33.8h-2.4L406.5,23h-.1V33.8h-2.6Z"/>
      </g>
      <g id="Group_135" data-name="Group 135">
        <path id="Path_32" data-name="Path 32" class="cls-1" d="M97,15.9h7.7v2.4H99.6v5.3H104V26H99.6v5.3h5.1v2.6H97Z"/>
        <path id="Path_33" data-name="Path 33" class="cls-1" d="M107.9,15.9h2.6V31.3h5.1v2.6h-7.7Z"/>
        <path id="Path_34" data-name="Path 34" class="cls-1" d="M118.7,15.9h7.7v2.4h-5.1v5.3h4.4V26h-4.4v5.3h5.1v2.6h-7.7Z"/>
        <path id="Path_35" data-name="Path 35" class="cls-1" d="M137.7,29.8a4.2,4.2,0,0,1-4.1,4.2,3.864,3.864,0,0,1-4.2-4.2V19.9a4.151,4.151,0,1,1,8.3.2v1h-2.6v-.9a1.722,1.722,0,0,0-1.6-1.9c-1.3,0-1.6.9-1.6,2.1v9.2c0,1,.4,1.8,1.6,1.8a1.574,1.574,0,0,0,1.6-1.8v-.9h2.6Z"/>
        <path id="Path_36" data-name="Path 36" class="cls-1" d="M142.2,18.3h-3V15.9h8.5v2.4h-3V33.8h-2.6V18.3Z"/>
        <path id="Path_37" data-name="Path 37" class="cls-1" d="M150.4,15.9h4.1c3,0,4.5,1.8,4.5,5.3,0,2.1-.6,3.6-2.2,4.5l2.8,8.2h-2.7l-2.4-7.7H153v7.7h-2.6Zm2.6,8h1.5c1.8,0,2.1-1,2.1-2.8s-.3-2.8-2.2-2.8H153Z"/>
        <path id="Path_38" data-name="Path 38" class="cls-1" d="M162.5,20.1a4.3,4.3,0,1,1,8.6,0v9.5a4.3,4.3,0,1,1-8.6,0Zm2.6,9.5a1.7,1.7,0,1,0,3.4,0V20.1a1.7,1.7,0,1,0-3.4,0Z"/>
        <path id="Path_39" data-name="Path 39" class="cls-1" d="M174.8,15.9h2.5l3.9,10.8h.1V15.9h2.6V33.8h-2.4L177.6,23h0V33.8H175V15.9Z"/>
        <path id="Path_40" data-name="Path 40" class="cls-1" d="M187.7,15.9h2.6V33.8h-2.6Z"/>
        <path id="Path_41" data-name="Path 41" class="cls-1" d="M202.4,29.8a4.2,4.2,0,0,1-4.1,4.2,3.864,3.864,0,0,1-4.2-4.2V19.9a4.151,4.151,0,1,1,8.3.2v1h-2.6v-.9a1.722,1.722,0,0,0-1.6-1.9c-1.3,0-1.6.9-1.6,2.1v9.2c0,1,.4,1.8,1.6,1.8a1.574,1.574,0,0,0,1.6-1.8v-.9h2.6Z"/>
      </g>
      <g id="Group_136" data-name="Group 136">
        <path id="Path_42" data-name="Path 42" class="cls-1" d="M212.2,15.9h7.7v2.4h-5.1v5.4h4.4v2.4h-4.4v7.7h-2.6V15.9Z"/>
        <path id="Path_43" data-name="Path 43" class="cls-1" d="M223.1,15.9h4.1c3,0,4.5,1.8,4.5,5.3,0,2.1-.6,3.6-2.2,4.5l2.8,8.2h-2.7l-2.4-7.7h-1.5v7.7h-2.6v-18Zm2.5,8h1.5c1.8,0,2.1-1,2.1-2.8s-.3-2.8-2.2-2.8h-1.3v5.6Z"/>
        <path id="Path_44" data-name="Path 44" class="cls-1" d="M235.2,20.1a4.3,4.3,0,1,1,8.6,0v9.5a4.3,4.3,0,1,1-8.6,0Zm2.5,9.5a1.7,1.7,0,1,0,3.4,0V20.1a1.7,1.7,0,1,0-3.4,0Z"/>
        <path id="Path_45" data-name="Path 45" class="cls-1" d="M247.4,15.9h2.5l3.9,10.8h.1V15.9h2.6V33.8H254L250.1,23H250V33.8h-2.6Z"/>
        <path id="Path_46" data-name="Path 46" class="cls-1" d="M261.9,18.3h-3V15.9h8.5v2.4h-3V33.8h-2.6V18.3Z"/>
        <path id="Path_47" data-name="Path 47" class="cls-1" d="M270.2,15.9h2.6V33.8h-2.6Z"/>
        <path id="Path_48" data-name="Path 48" class="cls-1" d="M276.8,15.9h7.7v2.4h-5.1v5.3h4.4V26h-4.4v5.3h5.1v2.6h-7.7Z"/>
        <path id="Path_49" data-name="Path 49" class="cls-1" d="M287.6,15.9h4.1c3,0,4.5,1.8,4.5,5.3,0,2.1-.6,3.6-2.2,4.5l2.8,8.2h-2.7l-2.4-7.7h-1.5v7.7h-2.6v-18Zm2.6,8h1.5c1.8,0,2.1-1,2.1-2.8s-.3-2.8-2.2-2.8h-1.3v5.6Z"/>
      </g>
    </g>
    <g id="Group_138" data-name="Group 138">
      <path id="Path_50" data-name="Path 50" class="cls-2" d="M17.7,19.7H26a22.535,22.535,0,0,1,1.4-4.4H17.8v4.4Z"/>
      <path id="Path_51" data-name="Path 51" class="cls-2" d="M17.7,34.4h9.6a25.846,25.846,0,0,1-1.7-6.2h-8v6.2Z"/>
      <path id="Path_52" data-name="Path 52" class="cls-2" d="M43,35.9H16.2V26.7H42V21.2H16.2V13.8H43V8.3H1.5V41.5H43Z"/>
      <path id="Path_53" data-name="Path 53" class="cls-1" d="M50.3,0A25,25,0,0,0,33.2,6.8H0V43H33.3a24.9,24.9,0,1,0,17-43ZM26,19.7H17.7V15.3h9.6A31.914,31.914,0,0,0,26,19.7Zm1.4,14.7H17.8V28.2h8A20.953,20.953,0,0,0,27.4,34.4ZM1.5,41.5V8.3H43v5.5H16.2v7.4H42v5.5H16.2v9.2H43v5.5H1.5ZM54,29.5H51.2v3.7H53V36H51.2v5.5H48.4V26.7H54Zm0-18.4H51.2v3.7H53v2.8H51.2V23H48.4V8.3H54Z"/>
    </g>
  </g>
</svg>
