<svg xmlns="http://www.w3.org/2000/svg" viewBox="-1189 -194 74.7 74.7">
  <defs>
    <style>
      .cls-1 {
        fill: #c9501d;
      }

      .cls-2 {
        fill: #fff;
      }
    </style>
  </defs>
  <g id="twitter_orange_icon" data-name="twitter orange icon" transform="translate(-1189 -197.2)">
    <g id="XMLID_48_">
      <path id="XMLID_49_" class="cls-1" d="M0,3.2V77.9H74.7V3.2Z"/>
    </g>
    <path id="XMLID_2_" class="cls-2" d="M57.4,31.1v1.3c0,12.5-9.6,27-27,27a26.489,26.489,0,0,1-14.5-4.2,16.95,16.95,0,0,0,2.3.1A18.782,18.782,0,0,0,30,51.2a9.365,9.365,0,0,1-8.8-6.6,9.908,9.908,0,0,0,1.8.2,6.9,6.9,0,0,0,2.5-.4,9.542,9.542,0,0,1-7.6-9.3V35a8.94,8.94,0,0,0,4.3,1.2,9.753,9.753,0,0,1-4.2-8,10.153,10.153,0,0,1,1.3-4.8,26.656,26.656,0,0,0,19.6,9.9,7.8,7.8,0,0,1-.3-2.2A9.48,9.48,0,0,1,55,24.6a20.739,20.739,0,0,0,6-2.3,9.391,9.391,0,0,1-4.1,5.2A18.726,18.726,0,0,0,62.3,26,18.387,18.387,0,0,1,57.4,31.1Z"/>
  </g>
</svg>
