<svg xmlns="http://www.w3.org/2000/svg" viewBox="1231 4376.365 224.072 264.635">
  <defs>
    <style>
      .cls-1 {
        fill: #dedfe0;
      }
    </style>
  </defs>
  <path id="Path_93" data-name="Path 93" class="cls-1" d="M884,4641h224.072v-87.8s-50.077-14.24-56.9-26.37-9.671-5.318-13.315-13.609,14.628-51.764,17.278-52.364,3.541-28.3,0-29.129,4.131-49.753-32.648-48.993c-3.17.065-6.137-4.1-10.56-5.474-5.333-1.657-12.484-.626-19.391,0-13.345,1.21-28.21,10.792-35.793,20.024-9.8,11.926-11.379,20.142-11.669,34.443-.066,3.229-3.507,2.479-3.511,5.391,0,2.519.475,18.881,1.6,21.863a27.363,27.363,0,0,0,4.051,6.5s20.953,37.7,17.722,47.739a9.469,9.469,0,0,1-3.42,4.522c-1.79,1.518-3.3-.25-16.443,11.172-17.311,15.05-61.077,18.371-61.077,18.371Z" transform="translate(347)"/>
</svg>
